<?xml version="1.0" encoding="UTF-8" standalone="no"?>
<svg
   xmlns:dc="http://purl.org/dc/elements/1.1/"
   xmlns:cc="http://creativecommons.org/ns#"
   xmlns:rdf="http://www.w3.org/1999/02/22-rdf-syntax-ns#"
   xmlns:svg="http://www.w3.org/2000/svg"
   xmlns="http://www.w3.org/2000/svg"
   xmlns:sodipodi="http://sodipodi.sourceforge.net/DTD/sodipodi-0.dtd"
   xmlns:inkscape="http://www.inkscape.org/namespaces/inkscape"
   width="134.97108mm"
   height="143.10185mm"
   viewBox="0 0 134.97108 143.10185"
   version="1.1"
   id="svg8"
   inkscape:version="1.0 (4035a4fb49, 2020-05-01)"
   sodipodi:docname="GF-logo-web.svg">
  <defs
     id="defs2">
    <inkscape:path-effect
       only_selected="false"
       apply_with_weight="true"
       apply_no_weight="true"
       helper_size="0"
       steps="2"
       weight="33.333333"
       lpeversion="1"
       is_visible="true"
       id="path-effect1651"
       effect="bspline" />
    <inkscape:path-effect
       only_selected="false"
       apply_with_weight="true"
       apply_no_weight="true"
       helper_size="0"
       steps="2"
       weight="33.333333"
       lpeversion="1"
       is_visible="true"
       id="path-effect1647"
       effect="bspline" />
    <inkscape:path-effect
       only_selected="false"
       apply_with_weight="true"
       apply_no_weight="true"
       helper_size="0"
       steps="2"
       weight="33.333333"
       lpeversion="1"
       is_visible="true"
       id="path-effect1643"
       effect="bspline" />
    <inkscape:path-effect
       only_selected="false"
       apply_with_weight="true"
       apply_no_weight="true"
       helper_size="0"
       steps="2"
       weight="33.333333"
       lpeversion="1"
       is_visible="true"
       id="path-effect1639"
       effect="bspline" />
    <rect
       id="rect912"
       height="145.68169"
       width="206.61633"
       y="48.639275"
       x="-387.93542" />
    <rect
       x="49.444862"
       y="77.775436"
       width="80.180855"
       height="123.74579"
       id="rect835" />
    <rect
       id="rect835-3"
       height="123.74579"
       width="80.180855"
       y="77.775436"
       x="49.444862" />
    <rect
       id="rect1570"
       height="123.74579"
       width="80.180855"
       y="77.775436"
       x="49.444862" />
  </defs>
  <sodipodi:namedview
     fit-margin-bottom="0"
     fit-margin-right="0"
     fit-margin-left="0"
     fit-margin-top="0"
     id="base"
     pagecolor="#ffffff"
     bordercolor="#666666"
     borderopacity="1.0"
     inkscape:pageopacity="0.0"
     inkscape:pageshadow="2"
     inkscape:zoom="0.70710678"
     inkscape:cx="273.58993"
     inkscape:cy="417.0637"
     inkscape:document-units="mm"
     inkscape:current-layer="layer1"
     inkscape:document-rotation="0"
     showgrid="false"
     showborder="true"
     inkscape:window-width="2560"
     inkscape:window-height="1369"
     inkscape:window-x="0"
     inkscape:window-y="0"
     inkscape:window-maximized="1" />
  <metadata
     id="metadata5">
    <rdf:RDF>
      <cc:Work
         rdf:about="">
        <dc:format>image/svg+xml</dc:format>
        <dc:type
           rdf:resource="http://purl.org/dc/dcmitype/StillImage" />
        <dc:title />
      </cc:Work>
    </rdf:RDF>
  </metadata>
  <g
     transform="translate(-36.407079,-14.055989)"
     inkscape:label="Layer 1"
     inkscape:groupmode="layer"
     id="layer1"
     style="opacity:1">
    <path
       transform="scale(0.26458333)"
       d="m 463.50195,232.34766 v 40.24804 l 135.78853,-0.001 48.43804,-40.20363 z m 0,147.78125 v 7.45703 c -9.5e-4,3.26854 -1.58572,6.33397 -4.25195,8.22461 -16.79479,11.91424 -35.08052,21.39149 -54.75586,28.41797 v 169.7539 h 48.92383 V 421.30078 h 102.58405 l 40.79095,-41.17187 z"
       style="font-size:178.084px;line-height:1.25;font-family:sans-serif;letter-spacing:0px;word-spacing:0px;opacity:1;fill:#59b3aa;fill-opacity:1;stroke:none;stroke-width:2.58337;stroke-opacity:1"
       id="path849" />
    <path
       id="path1668"
       transform="scale(0.26458333)"
       d="m 364.92578,232.3457 -39.86914,40.20313 h 69.83789 V 232.3457 Z"
       style="font-size:178.084px;line-height:1.25;font-family:sans-serif;letter-spacing:0px;word-spacing:0px;opacity:1;fill:#59b3aa;fill-opacity:1;stroke:none;stroke-width:2.58337;stroke-opacity:1" />
    <path
       id="path847"
       transform="scale(0.26458333)"
       d="m 318.0332,53.125 c -56.51111,0 -100.75156,16.54907 -132.7207,49.64844 -31.80768,32.9379 -47.71094,78.95435 -47.71094,138.04883 0,58.93303 15.90326,104.94944 47.71094,138.04882 31.96914,32.93791 76.20959,49.40625 132.7207,49.40625 25.83366,0 50.13254,-3.39053 72.89844,-10.17187 22.76595,-6.94277 43.59549,-17.11444 62.48633,-30.51563 V 232.3457 h -48.4375 v 40.20313 97.11914 c -10.81784,6.29696 -23.00963,10.97911 -36.57227,14.04687 -13.5627,2.90627 -28.98157,4.35938 -46.25781,4.35938 -44.24011,0 -77.50167,-12.35124 -99.7832,-37.05469 -22.12007,-24.70341 -33.17969,-61.43625 -33.17969,-110.19726 0,-48.92248 11.05962,-85.73603 33.17969,-110.43946 22.28153,-24.70342 55.54309,-37.054685 99.7832,-37.054685 22.44296,0 43.50734,4.798871 64.17969,11.624995 23.47052,7.7501 19.23599,6.26747 38.88281,17.4375 L 443.97266,87.515625 C 426.05055,76.213405 406.4319,67.656323 385.11914,61.84375 363.96782,56.031177 341.60642,53.125 318.0332,53.125 Z"
       style="font-size:178.084px;line-height:1.25;font-family:sans-serif;letter-spacing:0px;word-spacing:0px;opacity:1;fill:#dadada;fill-opacity:1;stroke:none;stroke-width:2.58337;stroke-opacity:1" />
    <text
       style="font-style:normal;font-weight:normal;font-size:10.5833px;line-height:1.25;font-family:sans-serif;letter-spacing:0px;word-spacing:0px;white-space:pre;shape-inside:url(#rect912);fill:#000000;fill-opacity:1;stroke:none;"
       id="text910"
       xml:space="preserve" />
  </g>
</svg>
